# xmcd
#
# Track frame offsets:
#	183
#	16328
#	33270
#	44843
#	60695
#	76740
#	99913
#	112080
#	125293
#	143060
#	161385
#	176200
#	191103
#	208418
#
# Disc length: 2932 seconds
#
# Revision: 1
# Processed by: cddbd v1.5.1PL0 Copyright (c) Steve Scherf et al.
# Submitted via: audiograbber 1.83.01
#
DISCID=c30b720e
DTITLE=Various Artist - Country Ballads
DYEAR=1992
DGENRE=Country
TTITLE0=willie nelson - Always on my mind
TTITLE1=marty robbins - my elusive dreams
TTITLE2=lynn anderson - country girl
TTITLE3=roseanne cash - what we really want
TTITLE4=bobby bare - the gambler
TTITLE5=the byrds - chestnut mare
TTITLE6=tammy wynette - stand by yor man
TTITLE7=charlie rich - behind closed doors
TTITLE8=tanya tucker - best of my love
TTITLE9=dolly parton - the river unbroken
TTITLE10=dan fogelberg - longer
TTITLE11=bertie higgins - key largo
TTITLE12=dr hook - sylvia's mother
TTITLE13=johnny cash - a thing called love
EXTD=
EXTT0=
EXTT1=
EXTT2=
EXTT3=
EXTT4=
EXTT5=
EXTT6=
EXTT7=
EXTT8=
EXTT9=
EXTT10=
EXTT11=
EXTT12=
EXTT13=
PLAYORDER=
